<mxfile host="Electron" modified="2024-01-02T16:47:46.763Z" agent="Mozilla/5.0 (Windows NT 10.0; Win64; x64) AppleWebKit/537.36 (KHTML, like Gecko) draw.io/22.1.11 Chrome/114.0.5735.289 Electron/25.9.8 Safari/537.36" etag="o4CPdabsGmghw7zFxXcK" version="22.1.11" type="device">
  <diagram name="Strona-1" id="w7YMo3iqcbLAdhAVnD8D">
    <mxGraphModel dx="901" dy="534" grid="1" gridSize="10" guides="1" tooltips="1" connect="1" arrows="1" fold="1" page="1" pageScale="1" pageWidth="827" pageHeight="1169" math="0" shadow="0">
      <root>
        <mxCell id="0" />
        <mxCell id="1" parent="0" />
        <mxCell id="Zi526OaxW3Dpw-rkOhbu-1" value="" style="rounded=0;whiteSpace=wrap;html=1;allowArrows=0;connectable=0;movable=0;" vertex="1" parent="1">
          <mxGeometry x="223" y="100" width="380" height="420" as="geometry" />
        </mxCell>
        <mxCell id="Zi526OaxW3Dpw-rkOhbu-2" value="" style="ellipse;whiteSpace=wrap;html=1;aspect=fixed;" vertex="1" parent="1">
          <mxGeometry x="335" y="335" width="50" height="50" as="geometry" />
        </mxCell>
        <mxCell id="Zi526OaxW3Dpw-rkOhbu-7" value="" style="verticalLabelPosition=bottom;shadow=0;dashed=0;align=center;html=1;verticalAlign=top;shape=mxgraph.electrical.radio.microphone_1;rotation=90;" vertex="1" parent="1">
          <mxGeometry x="350" y="310" width="20" height="20" as="geometry" />
        </mxCell>
        <mxCell id="Zi526OaxW3Dpw-rkOhbu-8" value="" style="verticalLabelPosition=bottom;shadow=0;dashed=0;align=center;html=1;verticalAlign=top;shape=mxgraph.electrical.radio.microphone_1;rotation=-180;" vertex="1" parent="1">
          <mxGeometry x="390" y="350" width="20" height="20" as="geometry" />
        </mxCell>
        <mxCell id="Zi526OaxW3Dpw-rkOhbu-9" value="" style="verticalLabelPosition=bottom;shadow=0;dashed=0;align=center;html=1;verticalAlign=top;shape=mxgraph.electrical.radio.microphone_1;rotation=0;" vertex="1" parent="1">
          <mxGeometry x="310" y="350" width="20" height="20" as="geometry" />
        </mxCell>
        <mxCell id="Zi526OaxW3Dpw-rkOhbu-10" value="" style="verticalLabelPosition=bottom;shadow=0;dashed=0;align=center;html=1;verticalAlign=top;shape=mxgraph.electrical.radio.microphone_1;rotation=-90;" vertex="1" parent="1">
          <mxGeometry x="350" y="390" width="20" height="20" as="geometry" />
        </mxCell>
        <mxCell id="Zi526OaxW3Dpw-rkOhbu-11" value="" style="endArrow=none;dashed=1;html=1;strokeWidth=1;rounded=0;strokeColor=#CCCCCC;" edge="1" parent="1">
          <mxGeometry width="50" height="50" relative="1" as="geometry">
            <mxPoint x="290" y="360" as="sourcePoint" />
            <mxPoint x="430" y="360" as="targetPoint" />
          </mxGeometry>
        </mxCell>
        <mxCell id="Zi526OaxW3Dpw-rkOhbu-12" value="" style="endArrow=none;dashed=1;html=1;strokeWidth=1;rounded=0;strokeColor=#CCCCCC;" edge="1" parent="1">
          <mxGeometry width="50" height="50" relative="1" as="geometry">
            <mxPoint x="360" y="430" as="sourcePoint" />
            <mxPoint x="360" y="290" as="targetPoint" />
          </mxGeometry>
        </mxCell>
        <mxCell id="Zi526OaxW3Dpw-rkOhbu-25" value="" style="endArrow=classic;html=1;strokeWidth=1;rounded=0;startArrow=none;startFill=0;endFill=1;fillColor=#f5f5f5;strokeColor=#999999;" edge="1" parent="1">
          <mxGeometry width="50" height="50" relative="1" as="geometry">
            <mxPoint x="360" y="360" as="sourcePoint" />
            <mxPoint x="330" y="100" as="targetPoint" />
          </mxGeometry>
        </mxCell>
        <mxCell id="Zi526OaxW3Dpw-rkOhbu-26" value="" style="endArrow=none;html=1;strokeWidth=1;rounded=0;endFill=0;startArrow=classic;startFill=1;fillColor=#f5f5f5;strokeColor=#999999;exitX=0;exitY=0.5;exitDx=0;exitDy=0;exitPerimeter=0;" edge="1" parent="1" source="Zi526OaxW3Dpw-rkOhbu-9">
          <mxGeometry width="50" height="50" relative="1" as="geometry">
            <mxPoint x="320" y="350" as="sourcePoint" />
            <mxPoint x="330" y="100" as="targetPoint" />
          </mxGeometry>
        </mxCell>
        <mxCell id="Zi526OaxW3Dpw-rkOhbu-27" value="" style="endArrow=classic;html=1;strokeWidth=1;rounded=0;startArrow=none;startFill=0;endFill=1;strokeColor=#999999;" edge="1" parent="1">
          <mxGeometry width="50" height="50" relative="1" as="geometry">
            <mxPoint x="360" y="360" as="sourcePoint" />
            <mxPoint x="390" y="100" as="targetPoint" />
          </mxGeometry>
        </mxCell>
        <mxCell id="Zi526OaxW3Dpw-rkOhbu-28" value="" style="endArrow=none;html=1;strokeWidth=1;rounded=0;endFill=0;startArrow=classic;startFill=1;strokeColor=#999999;exitX=0;exitY=0.5;exitDx=0;exitDy=0;exitPerimeter=0;" edge="1" parent="1" source="Zi526OaxW3Dpw-rkOhbu-8">
          <mxGeometry width="50" height="50" relative="1" as="geometry">
            <mxPoint x="400" y="350" as="sourcePoint" />
            <mxPoint x="390" y="100" as="targetPoint" />
          </mxGeometry>
        </mxCell>
        <mxCell id="Zi526OaxW3Dpw-rkOhbu-29" value="" style="endArrow=classic;html=1;strokeWidth=1;rounded=0;startArrow=none;startFill=0;endFill=1;fillColor=#f5f5f5;strokeColor=#999999;" edge="1" parent="1">
          <mxGeometry width="50" height="50" relative="1" as="geometry">
            <mxPoint x="360" y="360" as="sourcePoint" />
            <mxPoint x="360" y="100" as="targetPoint" />
          </mxGeometry>
        </mxCell>
        <mxCell id="Zi526OaxW3Dpw-rkOhbu-30" value="" style="endArrow=none;html=1;strokeWidth=1;rounded=0;endFill=0;startArrow=classic;startFill=1;fillColor=#f5f5f5;strokeColor=#999999;" edge="1" parent="1">
          <mxGeometry width="50" height="50" relative="1" as="geometry">
            <mxPoint x="360" y="310" as="sourcePoint" />
            <mxPoint x="360" y="100" as="targetPoint" />
          </mxGeometry>
        </mxCell>
        <mxCell id="Zi526OaxW3Dpw-rkOhbu-31" value="" style="endArrow=none;html=1;strokeWidth=1;rounded=0;endFill=0;startArrow=classic;startFill=1;fillColor=#f5f5f5;strokeColor=#999999;" edge="1" parent="1">
          <mxGeometry width="50" height="50" relative="1" as="geometry">
            <mxPoint x="600" y="330" as="sourcePoint" />
            <mxPoint x="360" y="360" as="targetPoint" />
          </mxGeometry>
        </mxCell>
        <mxCell id="Zi526OaxW3Dpw-rkOhbu-32" value="" style="endArrow=none;html=1;strokeWidth=1;rounded=0;endFill=0;startArrow=classic;startFill=1;fillColor=#f5f5f5;strokeColor=#999999;exitX=0;exitY=0.5;exitDx=0;exitDy=0;exitPerimeter=0;" edge="1" parent="1" source="Zi526OaxW3Dpw-rkOhbu-7">
          <mxGeometry width="50" height="50" relative="1" as="geometry">
            <mxPoint x="610" y="340" as="sourcePoint" />
            <mxPoint x="600" y="330" as="targetPoint" />
          </mxGeometry>
        </mxCell>
        <mxCell id="Zi526OaxW3Dpw-rkOhbu-33" value="" style="endArrow=none;html=1;strokeWidth=1;rounded=0;endFill=0;startArrow=classic;startFill=1;fillColor=#f5f5f5;strokeColor=#999999;" edge="1" parent="1">
          <mxGeometry width="50" height="50" relative="1" as="geometry">
            <mxPoint x="600" y="390" as="sourcePoint" />
            <mxPoint x="360" y="360" as="targetPoint" />
          </mxGeometry>
        </mxCell>
        <mxCell id="Zi526OaxW3Dpw-rkOhbu-34" value="" style="endArrow=none;html=1;strokeWidth=1;rounded=0;endFill=0;startArrow=classic;startFill=1;fillColor=#f5f5f5;strokeColor=#999999;exitX=0;exitY=0.5;exitDx=0;exitDy=0;exitPerimeter=0;" edge="1" parent="1" source="Zi526OaxW3Dpw-rkOhbu-10">
          <mxGeometry width="50" height="50" relative="1" as="geometry">
            <mxPoint x="370" y="320" as="sourcePoint" />
            <mxPoint x="600" y="390" as="targetPoint" />
          </mxGeometry>
        </mxCell>
        <mxCell id="Zi526OaxW3Dpw-rkOhbu-35" value="" style="endArrow=none;html=1;strokeWidth=1;rounded=0;endFill=0;startArrow=classic;startFill=1;fillColor=#f5f5f5;strokeColor=#999999;" edge="1" parent="1">
          <mxGeometry width="50" height="50" relative="1" as="geometry">
            <mxPoint x="600" y="360" as="sourcePoint" />
            <mxPoint x="360" y="360" as="targetPoint" />
          </mxGeometry>
        </mxCell>
        <mxCell id="Zi526OaxW3Dpw-rkOhbu-36" value="" style="endArrow=none;html=1;strokeWidth=1;rounded=0;endFill=0;startArrow=classic;startFill=1;fillColor=#f5f5f5;strokeColor=#999999;" edge="1" parent="1">
          <mxGeometry width="50" height="50" relative="1" as="geometry">
            <mxPoint x="410" y="360" as="sourcePoint" />
            <mxPoint x="600" y="360" as="targetPoint" />
          </mxGeometry>
        </mxCell>
        <mxCell id="Zi526OaxW3Dpw-rkOhbu-37" value="" style="endArrow=none;html=1;strokeWidth=1;rounded=0;endFill=0;startArrow=classic;startFill=1;fillColor=#f5f5f5;strokeColor=#999999;" edge="1" parent="1">
          <mxGeometry width="50" height="50" relative="1" as="geometry">
            <mxPoint x="330" y="520" as="sourcePoint" />
            <mxPoint x="360" y="360" as="targetPoint" />
          </mxGeometry>
        </mxCell>
        <mxCell id="Zi526OaxW3Dpw-rkOhbu-38" value="" style="endArrow=none;html=1;strokeWidth=1;rounded=0;endFill=0;startArrow=classic;startFill=1;fillColor=#f5f5f5;strokeColor=#999999;exitX=0;exitY=0.5;exitDx=0;exitDy=0;exitPerimeter=0;" edge="1" parent="1" source="Zi526OaxW3Dpw-rkOhbu-9">
          <mxGeometry width="50" height="50" relative="1" as="geometry">
            <mxPoint x="340" y="530" as="sourcePoint" />
            <mxPoint x="330" y="520" as="targetPoint" />
          </mxGeometry>
        </mxCell>
        <mxCell id="Zi526OaxW3Dpw-rkOhbu-39" value="" style="endArrow=none;html=1;strokeWidth=1;rounded=0;endFill=0;startArrow=classic;startFill=1;fillColor=#f5f5f5;strokeColor=#999999;" edge="1" parent="1">
          <mxGeometry width="50" height="50" relative="1" as="geometry">
            <mxPoint x="360" y="520" as="sourcePoint" />
            <mxPoint x="360" y="360" as="targetPoint" />
          </mxGeometry>
        </mxCell>
        <mxCell id="Zi526OaxW3Dpw-rkOhbu-40" value="" style="endArrow=none;html=1;strokeWidth=1;rounded=0;endFill=0;startArrow=classic;startFill=1;fillColor=#f5f5f5;strokeColor=#999999;exitX=0;exitY=0.5;exitDx=0;exitDy=0;exitPerimeter=0;" edge="1" parent="1" source="Zi526OaxW3Dpw-rkOhbu-10">
          <mxGeometry width="50" height="50" relative="1" as="geometry">
            <mxPoint x="370" y="530" as="sourcePoint" />
            <mxPoint x="360" y="520" as="targetPoint" />
          </mxGeometry>
        </mxCell>
        <mxCell id="Zi526OaxW3Dpw-rkOhbu-41" value="" style="endArrow=none;html=1;strokeWidth=1;rounded=0;endFill=0;startArrow=classic;startFill=1;fillColor=#f5f5f5;strokeColor=#999999;" edge="1" parent="1">
          <mxGeometry width="50" height="50" relative="1" as="geometry">
            <mxPoint x="390" y="520" as="sourcePoint" />
            <mxPoint x="360" y="360" as="targetPoint" />
          </mxGeometry>
        </mxCell>
        <mxCell id="Zi526OaxW3Dpw-rkOhbu-42" value="" style="endArrow=none;html=1;strokeWidth=1;rounded=0;endFill=0;startArrow=classic;startFill=1;fillColor=#f5f5f5;strokeColor=#999999;exitX=0;exitY=0.5;exitDx=0;exitDy=0;exitPerimeter=0;" edge="1" parent="1" source="Zi526OaxW3Dpw-rkOhbu-8">
          <mxGeometry width="50" height="50" relative="1" as="geometry">
            <mxPoint x="400" y="530" as="sourcePoint" />
            <mxPoint x="390" y="520" as="targetPoint" />
          </mxGeometry>
        </mxCell>
        <mxCell id="Zi526OaxW3Dpw-rkOhbu-43" value="" style="endArrow=none;html=1;strokeWidth=1;rounded=0;endFill=0;startArrow=classic;startFill=1;fillColor=#f5f5f5;strokeColor=#999999;" edge="1" parent="1">
          <mxGeometry width="50" height="50" relative="1" as="geometry">
            <mxPoint x="230" y="390" as="sourcePoint" />
            <mxPoint x="360" y="360" as="targetPoint" />
          </mxGeometry>
        </mxCell>
        <mxCell id="Zi526OaxW3Dpw-rkOhbu-44" value="" style="endArrow=none;html=1;strokeWidth=1;rounded=0;endFill=0;startArrow=classic;startFill=1;fillColor=#f5f5f5;strokeColor=#999999;" edge="1" parent="1">
          <mxGeometry width="50" height="50" relative="1" as="geometry">
            <mxPoint x="360" y="410" as="sourcePoint" />
            <mxPoint x="230" y="390" as="targetPoint" />
          </mxGeometry>
        </mxCell>
        <mxCell id="Zi526OaxW3Dpw-rkOhbu-45" value="" style="endArrow=none;html=1;strokeWidth=1;rounded=0;endFill=0;startArrow=classic;startFill=1;fillColor=#f5f5f5;strokeColor=#999999;" edge="1" parent="1">
          <mxGeometry width="50" height="50" relative="1" as="geometry">
            <mxPoint x="230" y="360" as="sourcePoint" />
            <mxPoint x="360" y="360" as="targetPoint" />
          </mxGeometry>
        </mxCell>
        <mxCell id="Zi526OaxW3Dpw-rkOhbu-46" value="" style="endArrow=none;html=1;strokeWidth=1;rounded=0;endFill=0;startArrow=classic;startFill=1;fillColor=#f5f5f5;strokeColor=#999999;exitX=0;exitY=0.5;exitDx=0;exitDy=0;exitPerimeter=0;" edge="1" parent="1" source="Zi526OaxW3Dpw-rkOhbu-9">
          <mxGeometry width="50" height="50" relative="1" as="geometry">
            <mxPoint x="240" y="370" as="sourcePoint" />
            <mxPoint x="230" y="360" as="targetPoint" />
          </mxGeometry>
        </mxCell>
        <mxCell id="Zi526OaxW3Dpw-rkOhbu-47" value="" style="endArrow=none;html=1;strokeWidth=1;rounded=0;endFill=0;startArrow=classic;startFill=1;fillColor=#f5f5f5;strokeColor=#999999;" edge="1" parent="1">
          <mxGeometry width="50" height="50" relative="1" as="geometry">
            <mxPoint x="230" y="330" as="sourcePoint" />
            <mxPoint x="360" y="360" as="targetPoint" />
          </mxGeometry>
        </mxCell>
        <mxCell id="Zi526OaxW3Dpw-rkOhbu-48" value="" style="endArrow=none;html=1;strokeWidth=1;rounded=0;endFill=0;startArrow=classic;startFill=1;fillColor=#f5f5f5;strokeColor=#999999;" edge="1" parent="1">
          <mxGeometry width="50" height="50" relative="1" as="geometry">
            <mxPoint x="360" y="310" as="sourcePoint" />
            <mxPoint x="230" y="330" as="targetPoint" />
          </mxGeometry>
        </mxCell>
        <mxCell id="Zi526OaxW3Dpw-rkOhbu-50" value="" style="endArrow=none;html=1;strokeWidth=1;rounded=0;endFill=0;startArrow=classic;startFill=1;fillColor=#f5f5f5;strokeColor=#999999;" edge="1" parent="1">
          <mxGeometry width="50" height="50" relative="1" as="geometry">
            <mxPoint x="360" y="310" as="sourcePoint" />
            <mxPoint x="360" y="390" as="targetPoint" />
          </mxGeometry>
        </mxCell>
        <mxCell id="Zi526OaxW3Dpw-rkOhbu-51" value="" style="endArrow=none;html=1;strokeWidth=1;rounded=0;endFill=0;startArrow=classic;startFill=1;fillColor=#f5f5f5;strokeColor=#999999;exitX=0;exitY=0.5;exitDx=0;exitDy=0;exitPerimeter=0;" edge="1" parent="1" source="Zi526OaxW3Dpw-rkOhbu-8">
          <mxGeometry width="50" height="50" relative="1" as="geometry">
            <mxPoint x="370" y="320" as="sourcePoint" />
            <mxPoint x="330" y="360" as="targetPoint" />
          </mxGeometry>
        </mxCell>
        <mxCell id="Zi526OaxW3Dpw-rkOhbu-52" value="" style="endArrow=none;html=1;strokeWidth=1;rounded=0;endFill=0;startArrow=classic;startFill=1;fillColor=#f5f5f5;strokeColor=#999999;" edge="1" parent="1">
          <mxGeometry width="50" height="50" relative="1" as="geometry">
            <mxPoint x="360" y="410" as="sourcePoint" />
            <mxPoint x="360" y="360" as="targetPoint" />
          </mxGeometry>
        </mxCell>
        <mxCell id="Zi526OaxW3Dpw-rkOhbu-53" value="" style="endArrow=none;html=1;strokeWidth=1;rounded=0;endFill=0;startArrow=classic;startFill=1;fillColor=#f5f5f5;strokeColor=#999999;" edge="1" parent="1">
          <mxGeometry width="50" height="50" relative="1" as="geometry">
            <mxPoint x="310" y="360" as="sourcePoint" />
            <mxPoint x="360" y="360" as="targetPoint" />
          </mxGeometry>
        </mxCell>
      </root>
    </mxGraphModel>
  </diagram>
</mxfile>
